<?xml version="1.0" encoding="utf-8"?>
<!-- Generator: Adobe Illustrator 16.0.3, SVG Export Plug-In . SVG Version: 6.00 Build 0)  -->
<!DOCTYPE svg PUBLIC "-//W3C//DTD SVG 1.1//EN" "http://www.w3.org/Graphics/SVG/1.1/DTD/svg11.dtd">
<svg version="1.1" id="Layer_1" xmlns="http://www.w3.org/2000/svg" xmlns:xlink="http://www.w3.org/1999/xlink" x="0px" y="0px"
	 width="230.968px" height="340.646px" viewBox="0 0 230.968 340.646" enable-background="new 0 0 230.968 340.646"
	 xml:space="preserve">
<g>
	<linearGradient id="SVGID_1_" gradientUnits="userSpaceOnUse" x1="91.4453" y1="290.9482" x2="139.417" y2="374.0376">
		<stop  offset="0.1441" style="stop-color:#282C2E"/>
		<stop  offset="0.251" style="stop-color:#3E3E40;stop-opacity:0.896"/>
		<stop  offset="0.4466" style="stop-color:#676769;stop-opacity:0.7055"/>
		<stop  offset="0.5871" style="stop-color:#858688;stop-opacity:0.5687"/>
		<stop  offset="0.6577" style="stop-color:#939598;stop-opacity:0.5"/>
		<stop  offset="0.7427" style="stop-color:#B6B7B9;stop-opacity:0.3758"/>
		<stop  offset="0.8555" style="stop-color:#DDDEDF;stop-opacity:0.211"/>
		<stop  offset="0.9452" style="stop-color:#F6F6F6;stop-opacity:0.08"/>
		<stop  offset="1" style="stop-color:#FFFFFF;stop-opacity:0"/>
	</linearGradient>
	<path fill="url(#SVGID_1_)" d="M211.083,332.489c0,2.365-42.219,4.283-94.293,4.283c-52.078,0-97.018-1.918-97.018-4.283
		c0-2.363,44.94-4.279,97.018-4.279C168.864,328.21,211.083,330.126,211.083,332.489z"/>
	<g>
		<g>
			<path fill="#282C2E" d="M61.54,89.939c5.769-26.813,26.882-32.378,57.23-26.044c24.07,5.025,32.986-40.29,22.119-52.969
				c11.184,0.863,24.869,25.598,32.512,32.108c20.004,17.051,32.977,4.092,53.787,11.053c-15.621-2.518-16.615,42.873-48.561,51.784
				c-21.637,6.036-32.229-7.478-50.129-9.531c-20.826-2.388-31.422,20.526-31.422,20.526"/>
		</g>
		<g>
			<g>
				<linearGradient id="SVGID_2_" gradientUnits="userSpaceOnUse" x1="137.0557" y1="64.2534" x2="137.0557" y2="10.9263">
					<stop  offset="0" style="stop-color:#464749"/>
					<stop  offset="1" style="stop-color:#282C2E"/>
				</linearGradient>
				<path fill="url(#SVGID_2_)" d="M124.476,64.122c21.74,2.684,30.324-36.419,22.064-51.031c-1.924-1.234-3.82-2.023-5.65-2.165
					C150.849,22.547,144.185,61.546,124.476,64.122z"/>
			</g>
			<g>
				<linearGradient id="SVGID_3_" gradientUnits="userSpaceOnUse" x1="84.9785" y1="89.9395" x2="84.9785" y2="61.5259">
					<stop  offset="0" style="stop-color:#464749"/>
					<stop  offset="1" style="stop-color:#282C2E"/>
				</linearGradient>
				<path fill="url(#SVGID_3_)" d="M108.417,62.171c-24.764-2.992-41.791,4.123-46.877,27.769l0,0
					C66.786,68.901,86.569,61.731,108.417,62.171z"/>
			</g>
		</g>
		<path fill="#F1F2F2" d="M25.697,99.162c0,0-2.754,25.573,3.147,44.063c5.901,18.492,8.64,26.996,8.64,26.996
			s13.453-3.457,20.474-3.783c11.014-0.514,27.889,2.209,27.889,2.209s6.958-29.437,30.734-42.732
			c2.684-1.502-21.64-42.885-21.64-42.885l-28.733-0.393L25.697,99.162z"/>
		<path fill="#F1F2F2" d="M58.707,209.876l30.757,61.375l22.068-5.611c0,0-3.42-5.965-7.175-9.639
			c-5.408-5.281-8.058-8.285-8.058-8.285s5.906-25.906-5.554-45.41c-3.669-6.242-3.28-5.656-3.28-5.656H70.82L58.707,209.876z"/>
		<path fill="#F1F2F2" d="M35.863,196.649l11.493,73.463l19.07,0.318c0,0-0.074-3.826-1.657-6.705
			c-2.576-4.693-4.759-6.029-4.759-6.029s7.364-27.127,1.656-49.018c-0.949-3.645-0.223-9.373-0.223-9.373L35.863,196.649z"/>
		<g>
			<linearGradient id="SVGID_4_" gradientUnits="userSpaceOnUse" x1="60.8774" y1="270.4307" x2="60.8774" y2="198.7061">
				<stop  offset="0" style="stop-color:#FFFFFF"/>
				<stop  offset="0.6532" style="stop-color:#D1D3D4"/>
			</linearGradient>
			<path fill="url(#SVGID_4_)" d="M57.064,198.706c-0.066,1.787-2.434,3.529-1.529,6.369c7.11,22.262,3.458,53.047,3.458,53.047
				s2.31,1.258,5.222,5.957c1.35,2.18,1.98,5.123,2.142,6.352h0.07c0,0,0-3.598-1.788-6.867c-2.57-4.693-4.628-5.867-4.628-5.867
				s7.364-27.32,1.656-49.211c-0.949-3.643-0.353-9.338-0.353-9.338L57.064,198.706z"/>
		</g>
		<g>
			<linearGradient id="SVGID_5_" gradientUnits="userSpaceOnUse" x1="41.6089" y1="270.1123" x2="41.6089" y2="196.6494">
				<stop  offset="0" style="stop-color:#FFFFFF"/>
				<stop  offset="0.6532" style="stop-color:#D1D3D4"/>
			</linearGradient>
			<polygon fill="url(#SVGID_5_)" points="35.863,196.649 47.355,270.112 39.184,196.997 			"/>
		</g>
		<path fill="#282C2E" d="M53.244,312.798l-18.042,13.633l-15.294,5.848c0,0,25.228,0.395,26.276,0
			c9.194-3.451,18.411-5.283,18.411-5.283l-3.542-14.051l5.373-42.514l-19.07-0.318L53.244,312.798z"/>
		<polygon fill="#282C2E" points="89.464,271.251 107.538,311.026 109.72,323.409 106.63,332.278 134.431,332.278 114.519,311.698 
			111.532,265.64 		"/>
		<g>
			<g>
				<g>
					<g>
						<g>
							<path fill="#282C2E" d="M57.45,131.235c4.793,0.473,7.199,0.883,11.949,2.039c-4.809-11.018-6.78-16.279-9.696-26.658
								c-0.987-0.127-1.485-0.185-2.475-0.281c-6.469,9.382-9.305,14.499-14.074,24.715c4.698-0.342,7.079-0.348,11.826-0.018
								c0.003-1.678,0.018-2.518,0.07-4.195c-1.852,0.225-2.779,0.357-4.627,0.686c2.499-5.408,3.875-8.089,6.884-13.291
								c1.615,5.669,2.566,8.523,4.773,14.317c-1.832-0.651-2.74-0.947-4.566-1.495C57.463,128.728,57.45,129.562,57.45,131.235z"/>
						</g>
					</g>
				</g>
			</g>
		</g>
		<g>
			<linearGradient id="SVGID_6_" gradientUnits="userSpaceOnUse" x1="75.2271" y1="271.251" x2="75.2271" y2="209.876">
				<stop  offset="0" style="stop-color:#FFFFFF"/>
				<stop  offset="0.6532" style="stop-color:#D1D3D4"/>
			</linearGradient>
			<polygon fill="url(#SVGID_6_)" points="60.99,214.437 89.464,271.251 61.965,209.876 			"/>
		</g>
		<linearGradient id="SVGID_7_" gradientUnits="userSpaceOnUse" x1="92.0435" y1="138.3447" x2="92.0435" y2="168.8799">
			<stop  offset="0" style="stop-color:#FFFFFF"/>
			<stop  offset="0.6532" style="stop-color:#D1D3D4"/>
		</linearGradient>
		<path fill="url(#SVGID_7_)" d="M82.498,168.022c2.079,0.286,3.339,0.857,3.339,0.857s3.897-16.589,15.753-30.535
			C101.589,138.345,92.641,146.746,82.498,168.022z"/>
		<path fill="#F1F2F2" d="M117.968,72.447c-17.481-4.196-27.455,11.681-27.455,11.681s32.508,60.855,37.154,75.129
			c3.391-2.672,10.234-7.277,20.043-10.222C146.29,116.03,139.845,77.696,117.968,72.447z"/>
		<g>
			<linearGradient id="SVGID_8_" gradientUnits="userSpaceOnUse" x1="106.6528" y1="96.4463" x2="106.6528" y2="71.7412">
				<stop  offset="0" style="stop-color:#FFFFFF"/>
				<stop  offset="0.6532" style="stop-color:#D1D3D4"/>
			</linearGradient>
			<path fill="url(#SVGID_8_)" d="M118.954,75.521c4.777,0.949,9.049,3.042,12.77,6.577c-3.717-4.905-8.246-8.329-13.756-9.651
				c-17.481-4.196-27.455,11.681-27.455,11.681s-10.34,9.354-8.769,12.318C83.608,93.302,99.97,71.74,118.954,75.521z"/>
		</g>
		<linearGradient id="SVGID_9_" gradientUnits="userSpaceOnUse" x1="119.0811" y1="159.2568" x2="119.0811" y2="117.0732">
			<stop  offset="0" style="stop-color:#FFFFFF"/>
			<stop  offset="0.6532" style="stop-color:#D1D3D4"/>
		</linearGradient>
		<path fill="url(#SVGID_9_)" d="M107.358,117.073c7.846,15.152,18.262,35.894,20.309,42.184c0.836-0.659,1.887-1.436,3.137-2.275
			C125.954,146.06,107.358,117.073,107.358,117.073z"/>
		<path fill="#282C2E" d="M146.763,198.347c0,0,2.076-22.959,0.947-49.312c-9.809,2.944-16.652,7.55-20.043,10.222
			c6.096,18.715,10.16,39.09,10.16,39.09s-7.871,3.936-9.051,3.936s-4.326,13.377-1.969,14.164c2.363,0.785,2.363,0.785,2.363,0.785
			l-0.395,2.754l3.115,2.363l11.836-1.576l9.836-10.426L146.763,198.347z"/>
		<linearGradient id="SVGID_10_" gradientUnits="userSpaceOnUse" x1="125.9541" y1="189.6621" x2="139.4854" y2="189.6621">
			<stop  offset="0" style="stop-color:#464749"/>
			<stop  offset="1" style="stop-color:#282C2E"/>
		</linearGradient>
		<path fill="url(#SVGID_10_)" d="M132.517,217.231c0,0-0.781-0.762-3.143-1.549s-2.314-12.615-0.598-13.4
			c1.074-0.494,10.709-3.109,10.709-3.109s-2.59-23.477-8.682-42.191c0.002-0.004,0.004-0.006,0.008-0.006
			c-1.252,0.84-2.307,1.618-3.145,2.281c6.096,18.715,10.16,39.09,10.16,39.09s-7.871,3.936-9.051,3.936s-4.326,13.377-1.969,14.164
			c2.363,0.785,2.363,0.785,2.363,0.785l-0.395,2.754l3.115,2.363L132.517,217.231z"/>
		<g>
			<linearGradient id="SVGID_11_" gradientUnits="userSpaceOnUse" x1="19.9077" y1="307.6865" x2="54.4727" y2="307.6865">
				<stop  offset="0" style="stop-color:#464749"/>
				<stop  offset="1" style="stop-color:#282C2E"/>
			</linearGradient>
			<path fill="url(#SVGID_11_)" d="M37.037,327.438l17.436-14.402l-5.314-29.941l4.085,29.621l-18.042,13.637l-15.294,5.846
				c0,0,2.494,0.039,5.946,0.08L37.037,327.438z"/>
		</g>
		<linearGradient id="SVGID_12_" gradientUnits="userSpaceOnUse" x1="100.7729" y1="332.2783" x2="100.7729" y2="271.2471">
			<stop  offset="0" style="stop-color:#464749"/>
			<stop  offset="1" style="stop-color:#282C2E"/>
		</linearGradient>
		<polygon fill="url(#SVGID_12_)" points="109.899,311.026 89.479,271.247 89.464,271.251 107.538,311.026 109.72,323.409 
			106.63,332.278 108.991,332.278 112.081,323.409 		"/>
		<g>
			<linearGradient id="SVGID_13_" gradientUnits="userSpaceOnUse" x1="87.4009" y1="196.665" x2="87.4009" y2="196.6523">
				<stop  offset="0" style="stop-color:#41B97D"/>
				<stop  offset="1" style="stop-color:#05A669"/>
			</linearGradient>
			<path fill="url(#SVGID_13_)" d="M87.406,196.665c0,0-0.02-0.029-0.006,0H87.406z"/>
			<linearGradient id="SVGID_14_" gradientUnits="userSpaceOnUse" x1="94.7095" y1="257.8154" x2="94.7095" y2="196.665">
				<stop  offset="0" style="stop-color:#FFFFFF"/>
				<stop  offset="0.6532" style="stop-color:#D1D3D4"/>
			</linearGradient>
			<path fill="url(#SVGID_14_)" d="M86.201,200.763c13.182,19.57,8.987,47.152,8.987,47.152s2.936,2.949,8.875,8.08
				c0.644,0.557,1.285,1.178,1.906,1.82c-0.543-0.633-1.104-1.242-1.673-1.799c-5.408-5.285-8.055-8.289-8.055-8.289
				s5.906-25.904-5.555-45.408c-2.82-4.799-3.241-5.559-3.285-5.654h-3.95C84.015,197.511,84.878,198.8,86.201,200.763z"/>
		</g>
		<path fill="#282C2E" d="M85.847,180.661c-0.323-6.154,0-12.014,0-12.014s-12.452-3.804-24.18-3.804
			c-10.522,0-24.183,3.804-24.183,3.804s0.324,5.859,0,12.014c-0.326,6.15-1.622,15.988-1.622,15.988l25.127,17.787l0,0
			c0,0,5.218-7.461,12.766-12.488c6.908-4.6,13.71-5.299,13.71-5.299S86.172,186.812,85.847,180.661z"/>
		<linearGradient id="SVGID_15_" gradientUnits="userSpaceOnUse" x1="84.7158" y1="197.374" x2="84.7158" y2="167.77">
			<stop  offset="0" style="stop-color:#464749"/>
			<stop  offset="1" style="stop-color:#282C2E"/>
		</linearGradient>
		<path fill="url(#SVGID_15_)" d="M85.847,180.661c-0.323-6.154,0-12.014,0-12.014l-3.228-0.878c0,0-0.907,6.737-0.583,12.892
			c0.326,6.15,1.89,16.713,1.89,16.713l3.541-0.725C87.466,196.649,86.172,186.812,85.847,180.661z"/>
		<linearGradient id="SVGID_16_" gradientUnits="userSpaceOnUse" x1="69.0093" y1="99.1094" x2="69.0093" y2="96.4307">
			<stop  offset="0" style="stop-color:#FFFFFF"/>
			<stop  offset="0.6532" style="stop-color:#D1D3D4"/>
		</linearGradient>
		<polygon fill="url(#SVGID_16_)" points="64.352,96.431 56.275,99.109 81.744,96.446 		"/>
		<linearGradient id="SVGID_17_" gradientUnits="userSpaceOnUse" x1="35.8628" y1="183.5068" x2="40.7759" y2="183.5068">
			<stop  offset="0" style="stop-color:#464749"/>
			<stop  offset="1" style="stop-color:#282C2E"/>
		</linearGradient>
		<path fill="url(#SVGID_17_)" d="M40.632,180.661c0.263-4.971,0.099-10.771,0.029-12.82c-1.959,0.471-3.177,0.807-3.177,0.807
			s0.324,5.859,0,12.014c-0.326,6.15-1.622,15.988-1.622,15.988l3.564,2.523C39.427,199.173,40.306,186.812,40.632,180.661z"/>
		<path fill="#F1F2F2" d="M27.651,112.538l38.557-29.9c0,0-20.458-6.297-37.77,6.688C9.126,103.808,1.15,125.241,4.355,139.211
			c4.718-3.819,12.458-8.274,23.725-9.528C26.734,119.269,27.651,112.538,27.651,112.538z"/>
		<g>
			<linearGradient id="SVGID_18_" gradientUnits="userSpaceOnUse" x1="29.6011" y1="139.208" x2="29.6011" y2="81.1123">
				<stop  offset="0" style="stop-color:#FFFFFF"/>
				<stop  offset="0.6532" style="stop-color:#D1D3D4"/>
			</linearGradient>
			<path fill="url(#SVGID_18_)" d="M31.193,89.321c8.252-6.188,17.218-7.992,24.342-8.189c-7.47-0.208-17.74,1.173-27.097,8.189
				C9.126,103.806,1.15,125.239,4.355,139.208c0.731-0.592,1.562-1.197,2.439-1.807C4.622,123.444,12.688,103.2,31.193,89.321z"/>
		</g>
		<linearGradient id="SVGID_19_" gradientUnits="userSpaceOnUse" x1="61.9697" y1="83.6367" x2="72.2988" y2="83.6367">
			<stop  offset="0" style="stop-color:#FFFFFF"/>
			<stop  offset="0.6532" style="stop-color:#D1D3D4"/>
		</linearGradient>
		<path fill="url(#SVGID_19_)" d="M72.299,82.638l-1.67,2.908l-8.659-3.818c0,0,1.042,0.09,1.949,0.248
			c0.779,0.135,2.289,0.662,2.289,0.662H72.299z"/>
		<g>
			<path fill="#282C2E" d="M89.648,20.991c0,0-1.229-2.983-1.621-5.912c-0.466-3.48,0.73-10.045,0.73-10.045
				s-7.067,6.329-9.479,9.778C76.085,10.309,95.912,34.099,89.648,20.991z"/>
			<g>
				<linearGradient id="SVGID_20_" gradientUnits="userSpaceOnUse" x1="79.3945" y1="10.9272" x2="88.7524" y2="10.9272">
					<stop  offset="0" style="stop-color:#464749"/>
					<stop  offset="1" style="stop-color:#282C2E"/>
				</linearGradient>
				<path fill="url(#SVGID_20_)" d="M88.752,5.053c0,0-6.846,6.132-9.358,9.611c0.441,0.441,1.157,1.205,2.032,2.138
					C83.739,12.542,88.752,5.053,88.752,5.053z"/>
			</g>
			<path fill="#282C2E" d="M104.548,14.28c0,0,3.215-0.271,6-1.26c3.307-1.176,8.598-5.241,8.598-5.241s-2.398,9.18-4.361,12.901
				C120.249,21.462,90.024,14.695,104.548,14.28z"/>
			<g>
				<path fill="#282C2E" d="M90.027,8.971c-13.936,4.396-25.439,15.518-32.221,27.002c3.683,3.215,8.732,6.761,15.574,10.114
					c9.341,4.577,21.798,6.787,33.979,7.744C118.87,26.373,122.405-1.249,90.027,8.971z"/>
				<path fill="#E4B69D" d="M57.806,35.973c-4.897,8.296-7.334,16.781-6.419,23.064C53.838,75.856,77.062,74.38,77.062,74.38
					l-12.71,22.033l17.392,0.033c0,0,16.795-21.58,25.615-42.615c-12.181-0.957-24.638-3.167-33.979-7.744
					C66.538,42.733,61.489,39.188,57.806,35.973z"/>
			</g>
			<path fill="#FFFFFF" d="M98.601,39.568c0,0-2.303-2.948-8.473-2.934c-6.168,0.014-7.63,1.895-7.63,1.895
				S92.555,42.259,98.601,39.568z"/>
			<g>
				<path fill="#9C8274" d="M59.178,49.916c0,0,5.822-0.69,11.346,2.865c4.116,2.649,6.141,4.964,6.141,4.964"/>
			</g>
			<linearGradient id="SVGID_21_" gradientUnits="userSpaceOnUse" x1="51.1968" y1="66.21" x2="80.3677" y2="66.21">
				<stop  offset="0" style="stop-color:#F2C4A9"/>
				<stop  offset="1" style="stop-color:#E4B69D"/>
			</linearGradient>
			<path fill="url(#SVGID_21_)" d="M80.368,74.397c0,0-23.224,1.477-25.675-15.344c-0.847-5.811,1.203-13.504,5.387-21.192
				c-0.806-0.632-1.571-1.26-2.274-1.873c-4.897,8.296-7.334,16.784-6.419,23.064c2.452,16.82,25.676,15.344,25.676,15.344
				l-12.71,22.033h3.306L80.368,74.397z"/>
			<polygon opacity="0.3" fill="#9C8274" points="54.794,41.783 76.08,47.303 69.236,43.914 			"/>
			<linearGradient id="SVGID_22_" gradientUnits="userSpaceOnUse" x1="57.8057" y1="22.7363" x2="103.7886" y2="22.7363">
				<stop  offset="0" style="stop-color:#464749"/>
				<stop  offset="1" style="stop-color:#282C2E"/>
			</linearGradient>
			<path fill="url(#SVGID_22_)" d="M60.953,36.45c6.869-11.673,18.528-22.976,32.646-27.444c3.846-1.217,7.221-1.887,10.19-2.111
				c-3.606-0.312-8.13,0.298-13.762,2.077c-13.936,4.396-25.439,15.518-32.221,27.002C61.489,39.188,64.684,39.716,60.953,36.45z"/>
			<g opacity="0.3">
				<path fill="#9C8274" d="M81.864,96.288c1.465-1.904,17.091-22.422,25.494-42.457c-1.26-0.1-2.521-0.219-3.783-0.348
					C97.077,71.75,85.661,90.345,81.864,96.288z"/>
			</g>
			<path fill="#FFFFFF" d="M63.711,27.559c1.052,0.51,2.262,1.313,3.537,2.575c3.893,3.853,3.645,5.955,3.645,5.955
				s-5.597-2.521-8.915-6.343c0,0,0.325-0.55,0.588-0.93C63.181,27.93,63.711,27.559,63.711,27.559z"/>
			<linearGradient id="SVGID_23_" gradientUnits="userSpaceOnUse" x1="82.4976" y1="39.958" x2="100.5581" y2="39.958">
				<stop  offset="0" style="stop-color:#464749"/>
				<stop  offset="1" style="stop-color:#282C2E"/>
			</linearGradient>
			<path fill="url(#SVGID_23_)" d="M98.568,39.586c-6.05,2.665-16.071-1.051-16.071-1.051s12.015,4.706,18.061,2.015
				C100.558,40.55,99.834,40.107,98.568,39.586z"/>
			<linearGradient id="SVGID_24_" gradientUnits="userSpaceOnUse" x1="62.0977" y1="33.2236" x2="69.7827" y2="33.2236">
				<stop  offset="0" style="stop-color:#464749"/>
				<stop  offset="1" style="stop-color:#282C2E"/>
			</linearGradient>
			<path fill="url(#SVGID_24_)" d="M68.967,34.444c0.011,0.151,0.005,0.227,0.005,0.227s-3.704-1.675-6.875-4.358
				c1.784,3.261,7.685,5.822,7.685,5.822S69.628,35.535,68.967,34.444z"/>
			<polygon fill="#282C2E" points="76.979,28.975 52.224,41.403 69.236,43.914 			"/>
			<linearGradient id="SVGID_25_" gradientUnits="userSpaceOnUse" x1="52.2241" y1="35.4038" x2="76.979" y2="35.4038">
				<stop  offset="0" style="stop-color:#464749"/>
				<stop  offset="1" style="stop-color:#282C2E"/>
			</linearGradient>
			<polygon fill="url(#SVGID_25_)" points="76.979,28.975 52.224,41.403 55.137,41.833 			"/>
		</g>
		<g>
			<linearGradient id="SVGID_26_" gradientUnits="userSpaceOnUse" x1="27.5684" y1="138.1743" x2="44.7275" y2="138.1743">
				<stop  offset="0" style="stop-color:#FFFFFF"/>
				<stop  offset="0.6532" style="stop-color:#D1D3D4"/>
			</linearGradient>
			<path fill="url(#SVGID_26_)" d="M30.364,128.274c-0.975-7.529-0.762-15.58-0.571-19.474c0,0-4.543,12.181-0.644,29.87
				c2.376,10.779,8.88,22.311,12.787,28.877c0.867-0.193,1.816-0.399,2.792-0.604c-3.923-6.656-9.893-17.864-12.432-28.272
				C31.38,134.919,30.773,131.432,30.364,128.274z"/>
		</g>
		<path fill="#282C2E" d="M28.081,129.683c-11.267,1.254-19.007,5.709-23.725,9.528c0.396,1.716,0.925,3.339,1.657,4.802
			c6.688,13.377,22.426,18.492,22.426,18.492l-3.148,3.541l1.181,7.869l-3.541-3.148c0,0-3.541-0.393-2.36,3.148
			s6.688,8.654,11.803,7.08c5.114-1.572,8.262,0.293,8.262,0.293l5.508-6.982c0,0-12.196-18.096-16.13-34.227
			C29.097,136.323,28.489,132.84,28.081,129.683z"/>
		<g>
			<linearGradient id="SVGID_27_" gradientUnits="userSpaceOnUse" x1="4.3555" y1="155.6582" x2="28.4385" y2="155.6582">
				<stop  offset="0" style="stop-color:#464749"/>
				<stop  offset="1" style="stop-color:#282C2E"/>
			</linearGradient>
			<path fill="url(#SVGID_27_)" d="M25.291,166.046l1.181,7.869l0.417-7.43l1.55-3.98c0,0-13.377-6.107-20.065-19.859
				c-0.731-1.506-1.184-3.48-1.579-5.244c0,0-1.185,0.793-2.439,1.81c0.396,1.716,0.925,3.339,1.657,4.802
				c6.688,13.377,22.426,18.492,22.426,18.492L25.291,166.046z"/>
			<linearGradient id="SVGID_28_" gradientUnits="userSpaceOnUse" x1="35.8999" y1="181.1143" x2="41.3691" y2="181.1143">
				<stop  offset="0" style="stop-color:#464749"/>
				<stop  offset="1" style="stop-color:#282C2E"/>
			</linearGradient>
			<path fill="url(#SVGID_28_)" d="M35.9,180.378c2.989-0.117,4.662,1.811,4.662,1.811l0.808-1.832
				C40.15,180.034,38.285,179.837,35.9,180.378z"/>
			<linearGradient id="SVGID_29_" gradientUnits="userSpaceOnUse" x1="20.3291" y1="176.0205" x2="32.5527" y2="176.0205">
				<stop  offset="0" style="stop-color:#464749"/>
				<stop  offset="1" style="stop-color:#282C2E"/>
			</linearGradient>
			<path fill="url(#SVGID_29_)" d="M22.93,173.386c-0.407-1.258-0.246-2.025,0.134-2.502l-0.134-0.117c0,0-3.541-0.393-2.36,3.148
				s6.688,8.654,11.803,7.08c0.063-0.02,0.117-0.023,0.18-0.043C28.148,180.815,23.942,176.511,22.93,173.386z"/>
		</g>
	</g>
</g>
</svg>
